<?xml version="1.0" standalone="yes"?><svg xmlns="http://www.w3.org/2000/svg" version="1.1" width="222" height="222" viewBox="0 0 222 222" shape-rendering="crispEdges"><rect x="0" y="0" width="222" height="222" fill="#fff"/><path fill="#000" d="M24 24h6v6H24V24M30 24h6v6H30V24M36 24h6v6H36V24M42 24h6v6H42V24M48 24h6v6H48V24M54 24h6v6H54V24M60 24h6v6H60V24M78 24h6v6H78V24M84 24h6v6H84V24M90 24h6v6H90V24M102 24h6v6H102V24M120 24h6v6H120V24M138 24h6v6H138V24M156 24h6v6H156V24M162 24h6v6H162V24M168 24h6v6H168V24M174 24h6v6H174V24M180 24h6v6H180V24M186 24h6v6H186V24M192 24h6v6H192V24M24 30h6v6H24V30M60 30h6v6H60V30M78 30h6v6H78V30M102 30h6v6H102V30M108 30h6v6H108V30M114 30h6v6H114V30M144 30h6v6H144V30M156 30h6v6H156V30M192 30h6v6H192V30M24 36h6v6H24V36M36 36h6v6H36V36M42 36h6v6H42V36M48 36h6v6H48V36M60 36h6v6H60V36M96 36h6v6H96V36M102 36h6v6H102V36M120 36h6v6H120V36M126 36h6v6H126V36M144 36h6v6H144V36M156 36h6v6H156V36M168 36h6v6H168V36M174 36h6v6H174V36M180 36h6v6H180V36M192 36h6v6H192V36M24 42h6v6H24V42M36 42h6v6H36V42M42 42h6v6H42V42M48 42h6v6H48V42M60 42h6v6H60V42M78 42h6v6H78V42M102 42h6v6H102V42M108 42h6v6H108V42M114 42h6v6H114V42M132 42h6v6H132V42M156 42h6v6H156V42M168 42h6v6H168V42M174 42h6v6H174V42M180 42h6v6H180V42M192 42h6v6H192V42M24 48h6v6H24V48M36 48h6v6H36V48M42 48h6v6H42V48M48 48h6v6H48V48M60 48h6v6H60V48M78 48h6v6H78V48M84 48h6v6H84V48M102 48h6v6H102V48M108 48h6v6H108V48M120 48h6v6H120V48M126 48h6v6H126V48M132 48h6v6H132V48M144 48h6v6H144V48M156 48h6v6H156V48M168 48h6v6H168V48M174 48h6v6H174V48M180 48h6v6H180V48M192 48h6v6H192V48M24 54h6v6H24V54M60 54h6v6H60V54M72 54h6v6H72V54M78 54h6v6H78V54M90 54h6v6H90V54M96 54h6v6H96V54M102 54h6v6H102V54M108 54h6v6H108V54M138 54h6v6H138V54M156 54h6v6H156V54M192 54h6v6H192V54M24 60h6v6H24V60M30 60h6v6H30V60M36 60h6v6H36V60M42 60h6v6H42V60M48 60h6v6H48V60M54 60h6v6H54V60M60 60h6v6H60V60M72 60h6v6H72V60M84 60h6v6H84V60M96 60h6v6H96V60M108 60h6v6H108V60M120 60h6v6H120V60M132 60h6v6H132V60M144 60h6v6H144V60M156 60h6v6H156V60M162 60h6v6H162V60M168 60h6v6H168V60M174 60h6v6H174V60M180 60h6v6H180V60M186 60h6v6H186V60M192 60h6v6H192V60M78 66h6v6H78V66M84 66h6v6H84V66M96 66h6v6H96V66M108 66h6v6H108V66M126 66h6v6H126V66M144 66h6v6H144V66M24 72h6v6H24V72M42 72h6v6H42V72M54 72h6v6H54V72M60 72h6v6H60V72M72 72h6v6H72V72M84 72h6v6H84V72M90 72h6v6H90V72M114 72h6v6H114V72M132 72h6v6H132V72M150 72h6v6H150V72M162 72h6v6H162V72M30 78h6v6H30V78M36 78h6v6H36V78M48 78h6v6H48V78M66 78h6v6H66V78M84 78h6v6H84V78M108 78h6v6H108V78M114 78h6v6H114V78M144 78h6v6H144V78M156 78h6v6H156V78M174 78h6v6H174V78M192 78h6v6H192V78M36 84h6v6H36V84M48 84h6v6H48V84M54 84h6v6H54V84M60 84h6v6H60V84M66 84h6v6H66V84M72 84h6v6H72V84M78 84h6v6H78V84M90 84h6v6H90V84M120 84h6v6H120V84M126 84h6v6H126V84M138 84h6v6H138V84M144 84h6v6H144V84M150 84h6v6H150V84M168 84h6v6H168V84M174 84h6v6H174V84M180 84h6v6H180V84M186 84h6v6H186V84M36 90h6v6H36V90M48 90h6v6H48V90M66 90h6v6H66V90M78 90h6v6H78V90M90 90h6v6H90V90M108 90h6v6H108V90M114 90h6v6H114V90M132 90h6v6H132V90M138 90h6v6H138V90M168 90h6v6H168V90M180 90h6v6H180V90M186 90h6v6H186V90M30 96h6v6H30V96M42 96h6v6H42V96M48 96h6v6H48V96M60 96h6v6H60V96M78 96h6v6H78V96M84 96h6v6H84V96M96 96h6v6H96V96M120 96h6v6H120V96M126 96h6v6H126V96M144 96h6v6H144V96M150 96h6v6H150V96M156 96h6v6H156V96M174 96h6v6H174V96M186 96h6v6H186V96M192 96h6v6H192V96M30 102h6v6H30V102M36 102h6v6H36V102M48 102h6v6H48V102M72 102h6v6H72V102M78 102h6v6H78V102M90 102h6v6H90V102M114 102h6v6H114V102M126 102h6v6H126V102M132 102h6v6H132V102M138 102h6v6H138V102M144 102h6v6H144V102M150 102h6v6H150V102M30 108h6v6H30V108M48 108h6v6H48V108M54 108h6v6H54V108M60 108h6v6H60V108M72 108h6v6H72V108M78 108h6v6H78V108M84 108h6v6H84V108M90 108h6v6H90V108M114 108h6v6H114V108M120 108h6v6H120V108M126 108h6v6H126V108M132 108h6v6H132V108M144 108h6v6H144V108M156 108h6v6H156V108M162 108h6v6H162V108M168 108h6v6H168V108M174 108h6v6H174V108M180 108h6v6H180V108M186 108h6v6H186V108M192 108h6v6H192V108M30 114h6v6H30V114M36 114h6v6H36V114M54 114h6v6H54V114M96 114h6v6H96V114M102 114h6v6H102V114M108 114h6v6H108V114M120 114h6v6H120V114M126 114h6v6H126V114M132 114h6v6H132V114M144 114h6v6H144V114M150 114h6v6H150V114M156 114h6v6H156V114M174 114h6v6H174V114M186 114h6v6H186V114M36 120h6v6H36V120M60 120h6v6H60V120M66 120h6v6H66V120M72 120h6v6H72V120M78 120h6v6H78V120M102 120h6v6H102V120M108 120h6v6H108V120M114 120h6v6H114V120M120 120h6v6H120V120M126 120h6v6H126V120M144 120h6v6H144V120M162 120h6v6H162V120M186 120h6v6H186V120M30 126h6v6H30V126M66 126h6v6H66V126M78 126h6v6H78V126M84 126h6v6H84V126M90 126h6v6H90V126M96 126h6v6H96V126M114 126h6v6H114V126M132 126h6v6H132V126M144 126h6v6H144V126M150 126h6v6H150V126M156 126h6v6H156V126M162 126h6v6H162V126M174 126h6v6H174V126M192 126h6v6H192V126M24 132h6v6H24V132M36 132h6v6H36V132M48 132h6v6H48V132M54 132h6v6H54V132M60 132h6v6H60V132M84 132h6v6H84V132M96 132h6v6H96V132M102 132h6v6H102V132M126 132h6v6H126V132M132 132h6v6H132V132M150 132h6v6H150V132M162 132h6v6H162V132M168 132h6v6H168V132M186 132h6v6H186V132M192 132h6v6H192V132M36 138h6v6H36V138M42 138h6v6H42V138M54 138h6v6H54V138M66 138h6v6H66V138M72 138h6v6H72V138M84 138h6v6H84V138M90 138h6v6H90V138M96 138h6v6H96V138M102 138h6v6H102V138M114 138h6v6H114V138M120 138h6v6H120V138M126 138h6v6H126V138M144 138h6v6H144V138M150 138h6v6H150V138M162 138h6v6H162V138M168 138h6v6H168V138M186 138h6v6H186V138M192 138h6v6H192V138M24 144h6v6H24V144M54 144h6v6H54V144M60 144h6v6H60V144M66 144h6v6H66V144M78 144h6v6H78V144M84 144h6v6H84V144M90 144h6v6H90V144M96 144h6v6H96V144M108 144h6v6H108V144M120 144h6v6H120V144M138 144h6v6H138V144M144 144h6v6H144V144M150 144h6v6H150V144M156 144h6v6H156V144M162 144h6v6H162V144M168 144h6v6H168V144M180 144h6v6H180V144M72 150h6v6H72V150M78 150h6v6H78V150M84 150h6v6H84V150M102 150h6v6H102V150M114 150h6v6H114V150M120 150h6v6H120V150M126 150h6v6H126V150M132 150h6v6H132V150M138 150h6v6H138V150M144 150h6v6H144V150M168 150h6v6H168V150M180 150h6v6H180V150M186 150h6v6H186V150M192 150h6v6H192V150M24 156h6v6H24V156M30 156h6v6H30V156M36 156h6v6H36V156M42 156h6v6H42V156M48 156h6v6H48V156M54 156h6v6H54V156M60 156h6v6H60V156M78 156h6v6H78V156M102 156h6v6H102V156M108 156h6v6H108V156M114 156h6v6H114V156M126 156h6v6H126V156M132 156h6v6H132V156M144 156h6v6H144V156M156 156h6v6H156V156M168 156h6v6H168V156M186 156h6v6H186V156M24 162h6v6H24V162M60 162h6v6H60V162M72 162h6v6H72V162M78 162h6v6H78V162M84 162h6v6H84V162M90 162h6v6H90V162M102 162h6v6H102V162M120 162h6v6H120V162M132 162h6v6H132V162M144 162h6v6H144V162M168 162h6v6H168V162M174 162h6v6H174V162M180 162h6v6H180V162M186 162h6v6H186V162M24 168h6v6H24V168M36 168h6v6H36V168M42 168h6v6H42V168M48 168h6v6H48V168M60 168h6v6H60V168M78 168h6v6H78V168M90 168h6v6H90V168M96 168h6v6H96V168M108 168h6v6H108V168M114 168h6v6H114V168M132 168h6v6H132V168M144 168h6v6H144V168M150 168h6v6H150V168M156 168h6v6H156V168M162 168h6v6H162V168M168 168h6v6H168V168M186 168h6v6H186V168M24 174h6v6H24V174M36 174h6v6H36V174M42 174h6v6H42V174M48 174h6v6H48V174M60 174h6v6H60V174M72 174h6v6H72V174M78 174h6v6H78V174M96 174h6v6H96V174M102 174h6v6H102V174M108 174h6v6H108V174M114 174h6v6H114V174M120 174h6v6H120V174M138 174h6v6H138V174M144 174h6v6H144V174M156 174h6v6H156V174M162 174h6v6H162V174M168 174h6v6H168V174M174 174h6v6H174V174M180 174h6v6H180V174M192 174h6v6H192V174M24 180h6v6H24V180M36 180h6v6H36V180M42 180h6v6H42V180M48 180h6v6H48V180M60 180h6v6H60V180M84 180h6v6H84V180M90 180h6v6H90V180M96 180h6v6H96V180M102 180h6v6H102V180M108 180h6v6H108V180M138 180h6v6H138V180M144 180h6v6H144V180M168 180h6v6H168V180M174 180h6v6H174V180M180 180h6v6H180V180M192 180h6v6H192V180M24 186h6v6H24V186M60 186h6v6H60V186M78 186h6v6H78V186M84 186h6v6H84V186M96 186h6v6H96V186M102 186h6v6H102V186M108 186h6v6H108V186M114 186h6v6H114V186M138 186h6v6H138V186M144 186h6v6H144V186M150 186h6v6H150V186M168 186h6v6H168V186M186 186h6v6H186V186M24 192h6v6H24V192M30 192h6v6H30V192M36 192h6v6H36V192M42 192h6v6H42V192M48 192h6v6H48V192M54 192h6v6H54V192M60 192h6v6H60V192M72 192h6v6H72V192M78 192h6v6H78V192M96 192h6v6H96V192M102 192h6v6H102V192M108 192h6v6H108V192M144 192h6v6H144V192M150 192h6v6H150V192M156 192h6v6H156V192M162 192h6v6H162V192M168 192h6v6H168V192M174 192h6v6H174V192M186 192h6v6H186V192"/></svg>